REM DIRINDEX 1\2,1\3
REM DIRNAME folder01,folder02,folder03
TITLE ""
FILE "Disc2Track12.mp3" MP3
  TRACK 01 AUDIO
    TITLE "0:"
    INDEX 01 00:00:00
  TRACK 02 AUDIO
    TITLE "3:cjc116_3163"
    INDEX 01 00:00:07
  TRACK 03 AUDIO
    TITLE "0:"
    INDEX 01 00:02:16
  TRACK 04 AUDIO
    TITLE "2:cjc116_3164"
    INDEX 01 00:02:71
  TRACK 05 AUDIO
    TITLE "0:"
    INDEX 01 00:04:05
  TRACK 06 AUDIO
    TITLE "2:cjc116_3165"
    INDEX 01 00:04:17
  TRACK 07 AUDIO
    TITLE "0:"
    INDEX 01 00:08:28
  TRACK 08 AUDIO
    TITLE "2:cjc116_3166"
    INDEX 01 00:08:72
  TRACK 09 AUDIO
    TITLE "0:"
    INDEX 01 00:10:10
  TRACK 10 AUDIO
    TITLE "2:cjc116_3167"
    INDEX 01 00:10:35
  TRACK 11 AUDIO
    TITLE "0:"
    INDEX 01 00:15:01
  TRACK 12 AUDIO
    TITLE "2:cjc116_3168"
    INDEX 01 00:15:44
  TRACK 13 AUDIO
    TITLE "0:"
    INDEX 01 00:16:40
  TRACK 14 AUDIO
    TITLE "2:cjc116_3169"
    INDEX 01 00:16:59
  TRACK 15 AUDIO
    TITLE "0:"
    INDEX 01 00:20:28
  TRACK 16 AUDIO
    TITLE "2:cjc116_3170"
    INDEX 01 00:20:67
  TRACK 17 AUDIO
    TITLE "0:"
    INDEX 01 00:22:09
  TRACK 18 AUDIO
    TITLE "2:cjc116_3171"
    INDEX 01 00:22:25
  TRACK 19 AUDIO
    TITLE "0:"
    INDEX 01 00:26:18
  TRACK 20 AUDIO
    TITLE "2:cjc116_3172"
    INDEX 01 00:26:60
  TRACK 21 AUDIO
    TITLE "0:"
    INDEX 01 00:28:04
  TRACK 22 AUDIO
    TITLE "2:cjc116_3173"
    INDEX 01 00:28:33
  TRACK 23 AUDIO
    TITLE "0:"
    INDEX 01 00:33:07
  TRACK 24 AUDIO
    TITLE "2:cjc116_3174"
    INDEX 01 00:33:64
  TRACK 25 AUDIO
    TITLE "0:"
    INDEX 01 00:34:69
  TRACK 26 AUDIO
    TITLE "2:cjc116_3175"
    INDEX 01 00:35:19
  TRACK 27 AUDIO
    TITLE "0:"
    INDEX 01 00:38:41
  TRACK 28 AUDIO
    TITLE "2:cjc116_3176"
    INDEX 01 00:39:19
  TRACK 29 AUDIO
    TITLE "0:"
    INDEX 01 00:40:24
  TRACK 30 AUDIO
    TITLE "2:cjc116_3177"
    INDEX 01 00:40:46
  TRACK 31 AUDIO
    TITLE "0:"
    INDEX 01 00:45:16
  TRACK 32 AUDIO
    TITLE "2:cjc116_3178"
    INDEX 01 00:45:59
  TRACK 33 AUDIO
    TITLE "0:"
    INDEX 01 00:46:62
  TRACK 34 AUDIO
    TITLE "2:cjc116_3179"
    INDEX 01 00:47:19
  TRACK 35 AUDIO
    TITLE "0:"
    INDEX 01 00:51:34
  TRACK 36 AUDIO
    TITLE "2:cjc116_3180"
    INDEX 01 00:52:02
  TRACK 37 AUDIO
    TITLE "0:"
    INDEX 01 00:53:06
  TRACK 38 AUDIO
    TITLE "2:cjc116_3181"
    INDEX 01 00:53:31
  TRACK 39 AUDIO
    TITLE "0:"
    INDEX 01 00:57:13
  TRACK 40 AUDIO
    TITLE "2:cjc116_3182"
    INDEX 01 00:58:01
  TRACK 41 AUDIO
    TITLE "0:"
    INDEX 01 00:59:04
  TRACK 42 AUDIO
    TITLE "2:cjc116_3183"
    INDEX 01 00:59:39
  TRACK 43 AUDIO
    TITLE "0:"
    INDEX 01 01:03:04
  TRACK 44 AUDIO
    TITLE "2:cjc116_3184"
    INDEX 01 01:03:43
  TRACK 45 AUDIO
    TITLE "0:"
    INDEX 01 01:04:50
  TRACK 46 AUDIO
    TITLE "2:cjc116_3185"
    INDEX 01 01:04:74
  TRACK 47 AUDIO
    TITLE "0:"
    INDEX 01 01:09:46
  TRACK 48 AUDIO
    TITLE "2:cjc116_3186"
    INDEX 01 01:10:18
  TRACK 49 AUDIO
    TITLE "0:"
    INDEX 01 01:11:21
  TRACK 50 AUDIO
    TITLE "2:cjc116_3187"
    INDEX 01 01:11:45
  TRACK 51 AUDIO
    TITLE "0:"
    INDEX 01 01:15:09
  TRACK 52 AUDIO
    TITLE "2:cjc116_3188"
    INDEX 01 01:15:48
  TRACK 53 AUDIO
    TITLE "0:"
    INDEX 01 01:16:46
  TRACK 54 AUDIO
    TITLE "2:cjc116_3189"
    INDEX 01 01:17:06
  TRACK 55 AUDIO
    TITLE "0:"
    INDEX 01 01:20:22
  TRACK 56 AUDIO
    TITLE "2:cjc116_3190"
    INDEX 01 01:20:63
  TRACK 57 AUDIO
    TITLE "0:"
    INDEX 01 01:21:72
  TRACK 58 AUDIO
    TITLE "2:cjc116_3191"
    INDEX 01 01:22:13
  TRACK 59 AUDIO
    TITLE "0:"
    INDEX 01 01:25:66
  TRACK 60 AUDIO
    TITLE "2:cjc116_3192"
    INDEX 01 01:26:30
  TRACK 61 AUDIO
    TITLE "0:"
    INDEX 01 01:27:42
  TRACK 62 AUDIO
    TITLE "2:cjc116_3193"
    INDEX 01 01:27:59
  TRACK 63 AUDIO
    TITLE "0:"
    INDEX 01 01:31:38
  TRACK 64 AUDIO
    TITLE "2:cjc116_3194"
    INDEX 01 01:31:69
  TRACK 65 AUDIO
    TITLE "0:"
    INDEX 01 01:33:13
  TRACK 66 AUDIO
    TITLE "2:cjc116_3195"
    INDEX 01 01:33:33
  TRACK 67 AUDIO
    TITLE "0:"
    INDEX 01 01:37:42
  TRACK 68 AUDIO
    TITLE "2:cjc116_3196"
    INDEX 01 01:38:08
  TRACK 69 AUDIO
    TITLE "0:"
    INDEX 01 01:39:19
  TRACK 70 AUDIO
    TITLE "2:cjc116_3197"
    INDEX 01 01:39:33
  TRACK 71 AUDIO
    TITLE "0:"
    INDEX 01 01:43:13
  TRACK 72 AUDIO
    TITLE "2:cjc116_3198"
    INDEX 01 01:43:54
  TRACK 73 AUDIO
    TITLE "0:"
    INDEX 01 01:44:70
  TRACK 74 AUDIO
    TITLE "2:cjc116_3199"
    INDEX 01 01:45:16
  TRACK 75 AUDIO
    TITLE "0:"
    INDEX 01 01:49:04
  TRACK 76 AUDIO
    TITLE "2:cjc116_3200"
    INDEX 01 01:49:51
  TRACK 77 AUDIO
    TITLE "0:"
    INDEX 01 01:50:58
  TRACK 78 AUDIO
    TITLE "2:cjc116_3201"
    INDEX 01 01:50:74
  TRACK 79 AUDIO
    TITLE "0:"
    INDEX 01 01:54:70
  TRACK 80 AUDIO
    TITLE "2:cjc116_3202"
    INDEX 01 01:55:44
  TRACK 81 AUDIO
    TITLE "0:"
    INDEX 01 01:56:55
  TRACK 82 AUDIO
    TITLE "2:cjc116_3203"
    INDEX 01 01:57:06
  TRACK 83 AUDIO
    TITLE "0:"
    INDEX 01 02:00:57
  TRACK 84 AUDIO
    TITLE "2:cjc116_3204"
    INDEX 01 02:01:25
  TRACK 85 AUDIO
    TITLE "0:"
    INDEX 01 02:02:40
  TRACK 86 AUDIO
    TITLE "2:cjc116_3205"
    INDEX 01 02:02:50
  TRACK 87 AUDIO
    TITLE "0:"
    INDEX 01 02:06:57
  TRACK 88 AUDIO
    TITLE "2:cjc116_3206"
    INDEX 01 02:07:27
  TRACK 89 AUDIO
    TITLE "0:"
    INDEX 01 02:08:52
  TRACK 90 AUDIO
    TITLE "2:cjc116_3207"
    INDEX 01 02:09:01
  TRACK 91 AUDIO
    TITLE "0:"
    INDEX 01 02:12:66
  TRACK 92 AUDIO
    TITLE "2:cjc116_3208"
    INDEX 01 02:13:34
  TRACK 93 AUDIO
    TITLE "0:"
    INDEX 01 02:14:49
  TRACK 94 AUDIO
    TITLE "2:cjc116_3209"
    INDEX 01 02:14:63
  TRACK 95 AUDIO
    TITLE "0:"
    INDEX 01 02:17:28
  TRACK 96 AUDIO
    TITLE "2:cjc116_3210"
    INDEX 01 02:17:71
  TRACK 97 AUDIO
    TITLE "0:"
    INDEX 01 02:19:13
  TRACK 98 AUDIO
    TITLE "2:cjc116_3211"
    INDEX 01 02:19:29
  TRACK 99 AUDIO
    TITLE "0:"
    INDEX 01 02:23:36
  TRACK 100 AUDIO
    TITLE "2:cjc116_3212"
    INDEX 01 02:24:12
  TRACK 101 AUDIO
    TITLE "0:"
    INDEX 01 02:25:10
  TRACK 102 AUDIO
    TITLE "2:cjc116_3213"
    INDEX 01 02:25:29
  TRACK 103 AUDIO
    TITLE "0:"
    INDEX 01 02:28:73
  TRACK 104 AUDIO
    TITLE "2:cjc116_3214"
    INDEX 01 02:29:41
  TRACK 105 AUDIO
    TITLE "0:"
    INDEX 01 02:30:50
  TRACK 106 AUDIO
    TITLE "2:cjc116_3215"
    INDEX 01 02:30:68
  TRACK 107 AUDIO
    TITLE "0:"
    INDEX 01 02:35:16
  TRACK 108 AUDIO
    TITLE "2:cjc116_3216"
    INDEX 01 02:35:61
  TRACK 109 AUDIO
    TITLE "0:"
    INDEX 01 02:36:70
  TRACK 110 AUDIO
    TITLE "2:cjc116_3217"
    INDEX 01 02:37:13
  TRACK 111 AUDIO
    TITLE "0:"
    INDEX 01 02:41:69
  TRACK 112 AUDIO
    TITLE "2:cjc116_3218"
    INDEX 01 02:42:36
  TRACK 113 AUDIO
    TITLE "0:"
    INDEX 01 02:43:55
  TRACK 114 AUDIO
    TITLE "2:cjc116_3219"
    INDEX 01 02:43:70
  TRACK 115 AUDIO
    TITLE "0:"
    INDEX 01 02:48:42
  TRACK 116 AUDIO
    TITLE "2:cjc116_3220"
    INDEX 01 02:49:06
  TRACK 117 AUDIO
    TITLE "0:"
    INDEX 01 02:50:43
  TRACK 118 AUDIO
    TITLE "2:cjc116_3221"
    INDEX 01 02:50:59
  TRACK 119 AUDIO
    TITLE "0:"
    INDEX 01 02:53:69
  TRACK 120 AUDIO
    TITLE "2:cjc116_3222"
    INDEX 01 02:54:35
  TRACK 121 AUDIO
    TITLE "0:"
    INDEX 01 02:55:52
  TRACK 122 AUDIO
    TITLE "2:cjc116_3223"
    INDEX 01 02:56:00
  TRACK 123 AUDIO
    TITLE "0:"
    INDEX 01 02:59:40
  TRACK 124 AUDIO
    TITLE "2:cjc116_3224"
    INDEX 01 03:00:14
  TRACK 125 AUDIO
    TITLE "0:"
    INDEX 01 03:03:20
  TRACK 126 AUDIO
    TITLE "2:cjc116_3225"
    INDEX 01 03:03:30
  TRACK 127 AUDIO
    TITLE "0:"
    INDEX 01 03:07:06
  TRACK 128 AUDIO
    TITLE "2:cjc116_3226"
    INDEX 01 03:07:41
  TRACK 129 AUDIO
    TITLE "0:"
    INDEX 01 03:09:03
  TRACK 130 AUDIO
    TITLE "2:cjc116_3227"
    INDEX 01 03:09:15
  TRACK 131 AUDIO
    TITLE "0:"
    INDEX 01 03:13:46
  TRACK 132 AUDIO
    TITLE "2:cjc116_3228"
    INDEX 01 03:14:12
  TRACK 133 AUDIO
    TITLE "0:"
    INDEX 01 03:15:66
  TRACK 134 AUDIO
    TITLE "2:cjc116_3229"
    INDEX 01 03:16:17
  TRACK 135 AUDIO
    TITLE "0:"
    INDEX 01 03:19:47
  TRACK 136 AUDIO
    TITLE "2:cjc116_3230"
    INDEX 01 03:20:32
  TRACK 137 AUDIO
    TITLE "0:"
    INDEX 01 03:21:42
  TRACK 138 AUDIO
    TITLE "2:cjc116_3231"
    INDEX 01 03:21:61
  TRACK 139 AUDIO
    TITLE "0:"
    INDEX 01 03:25:22
  TRACK 140 AUDIO
    TITLE "2:cjc116_3232"
    INDEX 01 03:25:69
  TRACK 141 AUDIO
    TITLE "0:"
    INDEX 01 03:27:03
  TRACK 142 AUDIO
    TITLE "2:cjc116_3233"
    INDEX 01 03:27:27
  TRACK 143 AUDIO
    TITLE "0:"
    INDEX 01 03:30:64
  TRACK 144 AUDIO
    TITLE "2:cjc116_3234"
    INDEX 01 03:31:32
  TRACK 145 AUDIO
    TITLE "0:"
    INDEX 01 03:32:41
  TRACK 146 AUDIO
    TITLE "2:cjc116_3235"
    INDEX 01 03:32:55
  TRACK 147 AUDIO
    TITLE "0:"
    INDEX 01 03:36:20
  TRACK 148 AUDIO
    TITLE "2:cjc116_3236"
    INDEX 01 03:36:61
  TRACK 149 AUDIO
    TITLE "0:"
    INDEX 01 03:37:64
  TRACK 150 AUDIO
    TITLE "2:cjc116_3237"
    INDEX 01 03:37:72
  TRACK 151 AUDIO
    TITLE "0:"
    INDEX 01 03:41:44
  TRACK 152 AUDIO
    TITLE "2:cjc116_3238"
    INDEX 01 03:42:18
  TRACK 153 AUDIO
    TITLE "0:"
    INDEX 01 03:43:29
  TRACK 154 AUDIO
    TITLE "2:cjc116_3239"
    INDEX 01 03:43:45
  TRACK 155 AUDIO
    TITLE "0:"
    INDEX 01 03:47:45
  TRACK 156 AUDIO
    TITLE "2:cjc116_3240"
    INDEX 01 03:48:13
  TRACK 157 AUDIO
    TITLE "0:"
    INDEX 01 03:49:18
  TRACK 158 AUDIO
    TITLE "2:cjc116_3241"
    INDEX 01 03:49:40
  TRACK 159 AUDIO
    TITLE "0:"
    INDEX 01 03:53:69
